<mxfile host="65bd71144e">
    <diagram id="Vd2RTJiqT4V9GYMpxsQZ" name="Page-1">
        <mxGraphModel dx="596" dy="459" grid="1" gridSize="10" guides="1" tooltips="1" connect="1" arrows="1" fold="1" page="1" pageScale="1" pageWidth="850" pageHeight="1100" math="0" shadow="0">
            <root>
                <mxCell id="0"/>
                <mxCell id="1" parent="0"/>
                <mxCell id="16" value="" style="edgeStyle=none;html=1;" edge="1" parent="1" source="2" target="15">
                    <mxGeometry relative="1" as="geometry"/>
                </mxCell>
                <mxCell id="2" value="Start" style="ellipse;whiteSpace=wrap;html=1;" parent="1" vertex="1">
                    <mxGeometry x="385" y="510" width="120" height="60" as="geometry"/>
                </mxCell>
                <mxCell id="9" value="" style="edgeStyle=none;html=1;" edge="1" parent="1">
                    <mxGeometry relative="1" as="geometry">
                        <mxPoint x="446.55555555555554" y="810" as="sourcePoint"/>
                        <mxPoint x="448.33333333333337" y="850" as="targetPoint"/>
                    </mxGeometry>
                </mxCell>
                <mxCell id="18" value="" style="edgeStyle=none;html=1;" edge="1" parent="1" source="15" target="17">
                    <mxGeometry relative="1" as="geometry"/>
                </mxCell>
                <mxCell id="15" value="int **weight&lt;br&gt;int n" style="whiteSpace=wrap;html=1;" vertex="1" parent="1">
                    <mxGeometry x="385" y="650" width="120" height="60" as="geometry"/>
                </mxCell>
                <mxCell id="20" value="" style="edgeStyle=none;html=1;" edge="1" parent="1" source="17" target="19">
                    <mxGeometry relative="1" as="geometry"/>
                </mxCell>
                <mxCell id="17" value="if(graphics.start( ))" style="rhombus;whiteSpace=wrap;html=1;" vertex="1" parent="1">
                    <mxGeometry x="380" y="780" width="130" height="80" as="geometry"/>
                </mxCell>
                <mxCell id="23" value="" style="edgeStyle=none;html=1;" edge="1" parent="1" source="19" target="22">
                    <mxGeometry relative="1" as="geometry"/>
                </mxCell>
                <mxCell id="19" value="n=graphics.drawnodes()&lt;br&gt;" style="whiteSpace=wrap;html=1;" vertex="1" parent="1">
                    <mxGeometry x="370" y="950" width="150" height="70" as="geometry"/>
                </mxCell>
                <mxCell id="21" value="true" style="text;html=1;align=center;verticalAlign=middle;resizable=0;points=[];autosize=1;strokeColor=none;fillColor=none;rotation=90;" vertex="1" parent="1">
                    <mxGeometry x="440" y="890" width="40" height="20" as="geometry"/>
                </mxCell>
                <mxCell id="27" value="" style="edgeStyle=none;html=1;" edge="1" parent="1" source="22" target="26">
                    <mxGeometry relative="1" as="geometry"/>
                </mxCell>
                <mxCell id="22" value="n=graphics.drawnodes()&lt;br&gt;weight=new int*[n]" style="whiteSpace=wrap;html=1;" vertex="1" parent="1">
                    <mxGeometry x="370" y="1100" width="150" height="70" as="geometry"/>
                </mxCell>
                <mxCell id="29" value="" style="edgeStyle=none;html=1;" edge="1" parent="1" source="26" target="28">
                    <mxGeometry relative="1" as="geometry"/>
                </mxCell>
                <mxCell id="26" value="i=0" style="whiteSpace=wrap;html=1;" vertex="1" parent="1">
                    <mxGeometry x="385" y="1255" width="120" height="60" as="geometry"/>
                </mxCell>
                <mxCell id="31" value="" style="edgeStyle=none;html=1;" edge="1" parent="1" source="28">
                    <mxGeometry relative="1" as="geometry">
                        <mxPoint x="448" y="1540" as="targetPoint"/>
                        <Array as="points"/>
                    </mxGeometry>
                </mxCell>
                <mxCell id="28" value="++i" style="whiteSpace=wrap;html=1;" vertex="1" parent="1">
                    <mxGeometry x="385" y="1395" width="120" height="60" as="geometry"/>
                </mxCell>
                <mxCell id="33" value="" style="edgeStyle=none;html=1;exitX=1;exitY=0.5;exitDx=0;exitDy=0;" edge="1" parent="1" source="43">
                    <mxGeometry relative="1" as="geometry">
                        <mxPoint x="508" y="1705" as="sourcePoint"/>
                        <mxPoint x="448" y="1360" as="targetPoint"/>
                        <Array as="points">
                            <mxPoint x="590" y="1710"/>
                            <mxPoint x="590" y="1360"/>
                        </Array>
                    </mxGeometry>
                </mxCell>
                <mxCell id="36" value="" style="edgeStyle=none;html=1;" edge="1" parent="1" source="30">
                    <mxGeometry relative="1" as="geometry">
                        <mxPoint x="447.5" y="1675" as="targetPoint"/>
                    </mxGeometry>
                </mxCell>
                <mxCell id="30" value="weight[i]=new int[n]" style="whiteSpace=wrap;html=1;" vertex="1" parent="1">
                    <mxGeometry x="385" y="1535" width="125" height="60" as="geometry"/>
                </mxCell>
                <mxCell id="46" value="" style="edgeStyle=none;html=1;startArrow=none;" edge="1" parent="1" source="47" target="45">
                    <mxGeometry relative="1" as="geometry"/>
                </mxCell>
                <mxCell id="43" value="if(i&amp;lt;n)" style="rhombus;whiteSpace=wrap;html=1;" vertex="1" parent="1">
                    <mxGeometry x="407.5" y="1670" width="80" height="80" as="geometry"/>
                </mxCell>
                <mxCell id="44" value="false" style="text;html=1;align=center;verticalAlign=middle;resizable=0;points=[];autosize=1;strokeColor=none;fillColor=none;" vertex="1" parent="1">
                    <mxGeometry x="510" y="1690" width="40" height="20" as="geometry"/>
                </mxCell>
                <mxCell id="50" value="" style="edgeStyle=none;html=1;" edge="1" parent="1" source="45" target="49">
                    <mxGeometry relative="1" as="geometry"/>
                </mxCell>
                <mxCell id="45" value="i=0" style="whiteSpace=wrap;html=1;" vertex="1" parent="1">
                    <mxGeometry x="387.5" y="1840" width="120" height="60" as="geometry"/>
                </mxCell>
                <mxCell id="47" value="true" style="text;html=1;align=center;verticalAlign=middle;resizable=0;points=[];autosize=1;strokeColor=none;fillColor=none;rotation=0;" vertex="1" parent="1">
                    <mxGeometry x="427.5" y="1780" width="40" height="20" as="geometry"/>
                </mxCell>
                <mxCell id="48" value="" style="edgeStyle=none;html=1;endArrow=none;" edge="1" parent="1" source="43" target="47">
                    <mxGeometry relative="1" as="geometry">
                        <mxPoint x="447.5" y="1750" as="sourcePoint"/>
                        <mxPoint x="447.5" y="1840" as="targetPoint"/>
                    </mxGeometry>
                </mxCell>
                <mxCell id="52" value="" style="edgeStyle=none;html=1;" edge="1" parent="1" source="49" target="51">
                    <mxGeometry relative="1" as="geometry"/>
                </mxCell>
                <mxCell id="49" value="i++&lt;br&gt;j=0" style="whiteSpace=wrap;html=1;" vertex="1" parent="1">
                    <mxGeometry x="387.5" y="1980" width="120" height="60" as="geometry"/>
                </mxCell>
                <mxCell id="54" value="" style="edgeStyle=none;html=1;" edge="1" parent="1" source="51" target="53">
                    <mxGeometry relative="1" as="geometry"/>
                </mxCell>
                <mxCell id="51" value="j++" style="whiteSpace=wrap;html=1;" vertex="1" parent="1">
                    <mxGeometry x="387.5" y="2120" width="120" height="60" as="geometry"/>
                </mxCell>
                <mxCell id="56" value="" style="edgeStyle=none;html=1;" edge="1" parent="1" source="53" target="55">
                    <mxGeometry relative="1" as="geometry"/>
                </mxCell>
                <mxCell id="60" value="true" style="edgeLabel;html=1;align=center;verticalAlign=middle;resizable=0;points=[];" vertex="1" connectable="0" parent="56">
                    <mxGeometry x="-0.2444" relative="1" as="geometry">
                        <mxPoint as="offset"/>
                    </mxGeometry>
                </mxCell>
                <mxCell id="58" value="" style="edgeStyle=none;html=1;" edge="1" parent="1" source="53" target="57">
                    <mxGeometry relative="1" as="geometry">
                        <Array as="points">
                            <mxPoint x="610" y="2290"/>
                        </Array>
                    </mxGeometry>
                </mxCell>
                <mxCell id="59" value="false" style="edgeLabel;html=1;align=center;verticalAlign=middle;resizable=0;points=[];" vertex="1" connectable="0" parent="58">
                    <mxGeometry x="-0.5015" relative="1" as="geometry">
                        <mxPoint as="offset"/>
                    </mxGeometry>
                </mxCell>
                <mxCell id="53" value="if(i==j)" style="rhombus;whiteSpace=wrap;html=1;" vertex="1" parent="1">
                    <mxGeometry x="407.5" y="2250" width="80" height="80" as="geometry"/>
                </mxCell>
                <mxCell id="63" value="" style="edgeStyle=none;html=1;entryX=0.5;entryY=0;entryDx=0;entryDy=0;" edge="1" parent="1" source="55" target="62">
                    <mxGeometry relative="1" as="geometry"/>
                </mxCell>
                <mxCell id="55" value="weight[ i ] [ j ] = 0" style="whiteSpace=wrap;html=1;" vertex="1" parent="1">
                    <mxGeometry x="387.5" y="2420" width="120" height="60" as="geometry"/>
                </mxCell>
                <mxCell id="65" value="" style="edgeStyle=none;html=1;" edge="1" parent="1" source="57">
                    <mxGeometry relative="1" as="geometry">
                        <mxPoint x="490" y="2590" as="targetPoint"/>
                        <Array as="points">
                            <mxPoint x="610" y="2590"/>
                        </Array>
                    </mxGeometry>
                </mxCell>
                <mxCell id="57" value="weight[i][j]=INFINITY" style="whiteSpace=wrap;html=1;" vertex="1" parent="1">
                    <mxGeometry x="550" y="2420" width="120" height="60" as="geometry"/>
                </mxCell>
                <mxCell id="67" value="" style="edgeStyle=none;html=1;" edge="1" parent="1">
                    <mxGeometry relative="1" as="geometry">
                        <mxPoint x="450" y="2090" as="targetPoint"/>
                        <mxPoint x="480" y="2591" as="sourcePoint"/>
                        <Array as="points">
                            <mxPoint x="362.5" y="2591"/>
                            <mxPoint x="363" y="2090"/>
                        </Array>
                    </mxGeometry>
                </mxCell>
                <mxCell id="69" value="false" style="edgeLabel;html=1;align=center;verticalAlign=middle;resizable=0;points=[];" vertex="1" connectable="0" parent="67">
                    <mxGeometry x="-0.4769" y="2" relative="1" as="geometry">
                        <mxPoint as="offset"/>
                    </mxGeometry>
                </mxCell>
                <mxCell id="71" value="" style="edgeStyle=none;html=1;startArrow=none;" edge="1" parent="1" source="72">
                    <mxGeometry relative="1" as="geometry">
                        <mxPoint x="447.5" y="2710" as="targetPoint"/>
                    </mxGeometry>
                </mxCell>
                <mxCell id="62" value="if(j&amp;lt;n)" style="rhombus;whiteSpace=wrap;html=1;" vertex="1" parent="1">
                    <mxGeometry x="407.5" y="2550" width="80" height="80" as="geometry"/>
                </mxCell>
                <mxCell id="72" value="true" style="text;html=1;align=center;verticalAlign=middle;resizable=0;points=[];autosize=1;strokeColor=none;fillColor=none;" vertex="1" parent="1">
                    <mxGeometry x="427.5" y="2650" width="40" height="20" as="geometry"/>
                </mxCell>
                <mxCell id="73" value="" style="edgeStyle=none;html=1;endArrow=none;" edge="1" parent="1" source="62" target="72">
                    <mxGeometry relative="1" as="geometry">
                        <mxPoint x="447.5" y="2630" as="sourcePoint"/>
                        <mxPoint x="447.5" y="2710" as="targetPoint"/>
                    </mxGeometry>
                </mxCell>
                <mxCell id="76" value="" style="edgeStyle=none;html=1;entryX=0;entryY=0.5;entryDx=0;entryDy=0;" edge="1" parent="1" source="74" target="49">
                    <mxGeometry relative="1" as="geometry">
                        <mxPoint x="380" y="2020" as="targetPoint"/>
                        <Array as="points">
                            <mxPoint x="280" y="2748"/>
                            <mxPoint x="280" y="2010"/>
                        </Array>
                    </mxGeometry>
                </mxCell>
                <mxCell id="78" value="false" style="edgeLabel;html=1;align=center;verticalAlign=middle;resizable=0;points=[];" vertex="1" connectable="0" parent="76">
                    <mxGeometry x="-0.8941" y="-1" relative="1" as="geometry">
                        <mxPoint x="1" as="offset"/>
                    </mxGeometry>
                </mxCell>
                <mxCell id="80" value="" style="edgeStyle=none;html=1;" edge="1" parent="1" source="74" target="79">
                    <mxGeometry relative="1" as="geometry"/>
                </mxCell>
                <mxCell id="81" value="true" style="edgeLabel;html=1;align=center;verticalAlign=middle;resizable=0;points=[];" vertex="1" connectable="0" parent="80">
                    <mxGeometry x="-0.2667" y="2" relative="1" as="geometry">
                        <mxPoint as="offset"/>
                    </mxGeometry>
                </mxCell>
                <mxCell id="74" value="if(i&amp;lt;n)" style="rhombus;whiteSpace=wrap;html=1;" vertex="1" parent="1">
                    <mxGeometry x="407.5" y="2708" width="80" height="80" as="geometry"/>
                </mxCell>
                <mxCell id="83" value="" style="edgeStyle=none;html=1;" edge="1" parent="1" source="79" target="82">
                    <mxGeometry relative="1" as="geometry"/>
                </mxCell>
                <mxCell id="79" value="graphics.inputWeight(weight)" style="whiteSpace=wrap;html=1;" vertex="1" parent="1">
                    <mxGeometry x="352.5" y="2878" width="190" height="42" as="geometry"/>
                </mxCell>
                <mxCell id="85" value="" style="edgeStyle=none;html=1;" edge="1" parent="1" source="82" target="84">
                    <mxGeometry relative="1" as="geometry"/>
                </mxCell>
                <mxCell id="82" value="i=0" style="whiteSpace=wrap;html=1;" vertex="1" parent="1">
                    <mxGeometry x="387.5" y="2991" width="120" height="60" as="geometry"/>
                </mxCell>
                <mxCell id="87" value="" style="edgeStyle=none;html=1;" edge="1" parent="1" source="84" target="86">
                    <mxGeometry relative="1" as="geometry"/>
                </mxCell>
                <mxCell id="84" value="i++" style="whiteSpace=wrap;html=1;" vertex="1" parent="1">
                    <mxGeometry x="387.5" y="3131" width="120" height="60" as="geometry"/>
                </mxCell>
                <mxCell id="89" value="" style="edgeStyle=none;html=1;" edge="1" parent="1" source="86" target="88">
                    <mxGeometry relative="1" as="geometry"/>
                </mxCell>
                <mxCell id="92" value="true" style="edgeLabel;html=1;align=center;verticalAlign=middle;resizable=0;points=[];" vertex="1" connectable="0" parent="89">
                    <mxGeometry x="-0.2222" y="2" relative="1" as="geometry">
                        <mxPoint as="offset"/>
                    </mxGeometry>
                </mxCell>
                <mxCell id="95" value="" style="edgeStyle=none;html=1;entryX=0.5;entryY=0;entryDx=0;entryDy=0;" edge="1" parent="1" source="86" target="96">
                    <mxGeometry relative="1" as="geometry">
                        <mxPoint x="620" y="3420" as="targetPoint"/>
                        <Array as="points">
                            <mxPoint x="760" y="3301"/>
                        </Array>
                    </mxGeometry>
                </mxCell>
                <mxCell id="98" value="false" style="edgeLabel;html=1;align=center;verticalAlign=middle;resizable=0;points=[];" vertex="1" connectable="0" parent="95">
                    <mxGeometry x="0.5682" relative="1" as="geometry">
                        <mxPoint y="1" as="offset"/>
                    </mxGeometry>
                </mxCell>
                <mxCell id="86" value="if(i==j)" style="rhombus;whiteSpace=wrap;html=1;" vertex="1" parent="1">
                    <mxGeometry x="407.5" y="3261" width="80" height="80" as="geometry"/>
                </mxCell>
                <mxCell id="100" value="" style="edgeStyle=none;html=1;fontColor=#FFFFFF;" edge="1" parent="1" source="88">
                    <mxGeometry relative="1" as="geometry">
                        <mxPoint x="448" y="3610" as="targetPoint"/>
                    </mxGeometry>
                </mxCell>
                <mxCell id="88" value="weight[i][j]=0" style="whiteSpace=wrap;html=1;" vertex="1" parent="1">
                    <mxGeometry x="387.5" y="3431" width="120" height="60" as="geometry"/>
                </mxCell>
                <mxCell id="102" value="" style="edgeStyle=none;html=1;fontColor=#FFFFFF;" edge="1" parent="1" source="90" target="101">
                    <mxGeometry relative="1" as="geometry"/>
                </mxCell>
                <mxCell id="90" value="&lt;div style=&quot;font-family: &amp;#34;droid sans mono&amp;#34; , monospace , monospace ; font-size: 14px ; line-height: 19px&quot;&gt;&lt;div&gt;&lt;font color=&quot;#ffffff&quot;&gt;&lt;span style=&quot;white-space: pre&quot;&gt;&#9;&lt;/span&gt;unsigned int dist[n],perm[n];&lt;/font&gt;&lt;/div&gt;&lt;div&gt;    &lt;font color=&quot;#ffffff&quot;&gt;&lt;span style=&quot;white-space: pre&quot;&gt;&#9;&lt;/span&gt;unsigned int &lt;span style=&quot;white-space: pre&quot;&gt;&#9;&lt;/span&gt;current,k,dc,smalldist,newdist,membnodes=0;&lt;/font&gt;&lt;/div&gt;&lt;div&gt;    &lt;font color=&quot;#ffffff&quot;&gt;&lt;span style=&quot;white-space: pre&quot;&gt;&#9;&lt;/span&gt;unsigned int s=0,pd,precede[n];&lt;/font&gt;&lt;/div&gt;&lt;/div&gt;" style="whiteSpace=wrap;html=1;align=left;" vertex="1" parent="1">
                    <mxGeometry x="236.25" y="3610" width="433.75" height="129" as="geometry"/>
                </mxCell>
                <mxCell id="97" value="" style="edgeStyle=none;html=1;entryX=1;entryY=0.5;entryDx=0;entryDy=0;" edge="1" parent="1" source="96" target="90">
                    <mxGeometry relative="1" as="geometry">
                        <mxPoint x="603" y="3620" as="targetPoint"/>
                        <Array as="points">
                            <mxPoint x="760" y="3675"/>
                        </Array>
                    </mxGeometry>
                </mxCell>
                <mxCell id="96" value="weight[i][j]=weight[j][i]" style="whiteSpace=wrap;html=1;" vertex="1" parent="1">
                    <mxGeometry x="700" y="3431" width="120" height="60" as="geometry"/>
                </mxCell>
                <mxCell id="104" value="" style="edgeStyle=none;html=1;fontColor=#FFFFFF;" edge="1" parent="1" source="101" target="103">
                    <mxGeometry relative="1" as="geometry"/>
                </mxCell>
                <mxCell id="101" value="i=0" style="whiteSpace=wrap;html=1;align=center;" vertex="1" parent="1">
                    <mxGeometry x="393.125" y="3853.5" width="120" height="60" as="geometry"/>
                </mxCell>
                <mxCell id="106" value="" style="edgeStyle=none;html=1;fontColor=#FFFFFF;" edge="1" parent="1" source="103" target="105">
                    <mxGeometry relative="1" as="geometry"/>
                </mxCell>
                <mxCell id="103" value="i++" style="whiteSpace=wrap;html=1;" vertex="1" parent="1">
                    <mxGeometry x="393.125" y="3993.5" width="120" height="60" as="geometry"/>
                </mxCell>
                <mxCell id="108" value="" style="edgeStyle=none;html=1;fontColor=#FFFFFF;" edge="1" parent="1" source="105" target="107">
                    <mxGeometry relative="1" as="geometry"/>
                </mxCell>
                <mxCell id="105" value="perm[i]=NONMEMBER&lt;br&gt;dist[i]=INFINITY" style="whiteSpace=wrap;html=1;" vertex="1" parent="1">
                    <mxGeometry x="387.5" y="4133.5" width="136.88" height="56.5" as="geometry"/>
                </mxCell>
                <mxCell id="109" value="" style="edgeStyle=none;html=1;fontColor=#FFFFFF;" edge="1" parent="1" source="107">
                    <mxGeometry relative="1" as="geometry">
                        <mxPoint x="390" y="4030" as="targetPoint"/>
                        <Array as="points">
                            <mxPoint x="360" y="4298"/>
                            <mxPoint x="360" y="4030"/>
                        </Array>
                    </mxGeometry>
                </mxCell>
                <mxCell id="110" value="false" style="edgeLabel;html=1;align=center;verticalAlign=middle;resizable=0;points=[];fontColor=#FFFFFF;" vertex="1" connectable="0" parent="109">
                    <mxGeometry x="-0.3275" y="-2" relative="1" as="geometry">
                        <mxPoint as="offset"/>
                    </mxGeometry>
                </mxCell>
                <mxCell id="112" value="" style="edgeStyle=none;html=1;fontColor=#FFFFFF;entryX=0.5;entryY=0;entryDx=0;entryDy=0;" edge="1" parent="1" target="111">
                    <mxGeometry relative="1" as="geometry">
                        <mxPoint x="455.4772404393491" y="4334.712759560651" as="sourcePoint"/>
                        <mxPoint x="460" y="4412" as="targetPoint"/>
                    </mxGeometry>
                </mxCell>
                <mxCell id="107" value="if(i&amp;lt;n)" style="rhombus;whiteSpace=wrap;html=1;" vertex="1" parent="1">
                    <mxGeometry x="415.94" y="4258.25" width="80" height="80" as="geometry"/>
                </mxCell>
                <mxCell id="115" value="" style="edgeStyle=none;html=1;fontColor=#FFFFFF;" edge="1" parent="1" source="111" target="114">
                    <mxGeometry relative="1" as="geometry"/>
                </mxCell>
                <mxCell id="111" value="&lt;div style=&quot;font-family: &amp;#34;droid sans mono&amp;#34; , monospace , monospace ; font-size: 14px ; line-height: 19px&quot;&gt;&lt;div&gt; &lt;font color=&quot;#ffffff&quot;&gt;perm[s]=MEMBER;&lt;/font&gt;&lt;/div&gt;&lt;div&gt;    &lt;font color=&quot;#ffffff&quot;&gt;membnodes=1;&lt;/font&gt;&lt;/div&gt;&lt;div&gt;    &lt;font color=&quot;#ffffff&quot;&gt;dist[s]=0;&lt;/font&gt;&lt;/div&gt;&lt;div&gt;    &lt;font color=&quot;#ffffff&quot;&gt;current=s;&lt;/font&gt;&lt;/div&gt;&lt;div&gt;    &lt;font color=&quot;#ffffff&quot;&gt;graphics.update(s,s);&lt;/font&gt;&lt;/div&gt;&lt;/div&gt;" style="whiteSpace=wrap;html=1;" vertex="1" parent="1">
                    <mxGeometry x="360" y="4410" width="190" height="130" as="geometry"/>
                </mxCell>
                <mxCell id="117" value="" style="edgeStyle=none;html=1;fontColor=#FFFFFF;" edge="1" parent="1" source="114" target="116">
                    <mxGeometry relative="1" as="geometry">
                        <Array as="points"/>
                    </mxGeometry>
                </mxCell>
                <mxCell id="171" value="true" style="edgeLabel;html=1;align=center;verticalAlign=middle;resizable=0;points=[];fontSize=12;fontColor=#FFFFFF;" vertex="1" connectable="0" parent="117">
                    <mxGeometry x="-0.3111" relative="1" as="geometry">
                        <mxPoint as="offset"/>
                    </mxGeometry>
                </mxCell>
                <mxCell id="114" value="while(true)" style="rhombus;whiteSpace=wrap;html=1;" vertex="1" parent="1">
                    <mxGeometry x="415" y="4645" width="80" height="80" as="geometry"/>
                </mxCell>
                <mxCell id="121" value="" style="edgeStyle=none;html=1;fontColor=#FFFFFF;" edge="1" parent="1" source="116" target="120">
                    <mxGeometry relative="1" as="geometry"/>
                </mxCell>
                <mxCell id="116" value="dc=dist[current]&lt;br&gt;i=0" style="whiteSpace=wrap;html=1;" vertex="1" parent="1">
                    <mxGeometry x="395" y="4815" width="120" height="60" as="geometry"/>
                </mxCell>
                <mxCell id="123" value="" style="edgeStyle=none;html=1;fontColor=#FFFFFF;" edge="1" parent="1" source="120" target="122">
                    <mxGeometry relative="1" as="geometry"/>
                </mxCell>
                <mxCell id="120" value="i++" style="whiteSpace=wrap;html=1;" vertex="1" parent="1">
                    <mxGeometry x="395" y="4955" width="120" height="60" as="geometry"/>
                </mxCell>
                <mxCell id="125" value="" style="edgeStyle=none;html=1;fontColor=#FFFFFF;startArrow=none;" edge="1" parent="1" source="126" target="124">
                    <mxGeometry relative="1" as="geometry"/>
                </mxCell>
                <mxCell id="142" value="" style="edgeStyle=none;html=1;fontSize=12;fontColor=#FFFFFF;" edge="1" parent="1" source="122">
                    <mxGeometry relative="1" as="geometry">
                        <mxPoint x="680" y="6000" as="targetPoint"/>
                        <Array as="points">
                            <mxPoint x="720" y="5138"/>
                            <mxPoint x="720" y="6000"/>
                        </Array>
                    </mxGeometry>
                </mxCell>
                <mxCell id="154" value="false" style="edgeLabel;html=1;align=center;verticalAlign=middle;resizable=0;points=[];fontSize=12;fontColor=#FFFFFF;" vertex="1" connectable="0" parent="142">
                    <mxGeometry x="-0.506" y="2" relative="1" as="geometry">
                        <mxPoint as="offset"/>
                    </mxGeometry>
                </mxCell>
                <mxCell id="122" value="if(perm[i]=NONMEMBER)" style="rhombus;whiteSpace=wrap;html=1;" vertex="1" parent="1">
                    <mxGeometry x="350" y="5085" width="210" height="105" as="geometry"/>
                </mxCell>
                <mxCell id="129" value="" style="edgeStyle=none;html=1;fontColor=#FFFFFF;startArrow=none;" edge="1" parent="1" source="130" target="128">
                    <mxGeometry relative="1" as="geometry"/>
                </mxCell>
                <mxCell id="143" value="" style="edgeStyle=none;html=1;fontSize=12;fontColor=#FFFFFF;" edge="1" parent="1" source="124">
                    <mxGeometry relative="1" as="geometry">
                        <mxPoint x="610" y="6000" as="targetPoint"/>
                        <Array as="points">
                            <mxPoint x="680" y="5320"/>
                            <mxPoint x="680" y="6000"/>
                        </Array>
                    </mxGeometry>
                </mxCell>
                <mxCell id="153" value="false" style="edgeLabel;html=1;align=center;verticalAlign=middle;resizable=0;points=[];fontSize=12;fontColor=#FFFFFF;" vertex="1" connectable="0" parent="143">
                    <mxGeometry x="-0.4368" y="1" relative="1" as="geometry">
                        <mxPoint as="offset"/>
                    </mxGeometry>
                </mxCell>
                <mxCell id="124" value="&lt;div style=&quot;font-family: &amp;#34;droid sans mono&amp;#34; , monospace , monospace ; line-height: 19px&quot;&gt;&lt;font color=&quot;#ffffff&quot; style=&quot;font-size: 12px&quot;&gt;if (weight[current][i]!=INFINITY)&lt;/font&gt;&lt;/div&gt;" style="rhombus;whiteSpace=wrap;html=1;" vertex="1" parent="1">
                    <mxGeometry x="350.94" y="5270" width="210" height="105" as="geometry"/>
                </mxCell>
                <mxCell id="126" value="true" style="text;html=1;align=center;verticalAlign=middle;resizable=0;points=[];autosize=1;strokeColor=none;fillColor=none;fontColor=#FFFFFF;" vertex="1" parent="1">
                    <mxGeometry x="435.94" y="5220" width="40" height="20" as="geometry"/>
                </mxCell>
                <mxCell id="127" value="" style="edgeStyle=none;html=1;fontColor=#FFFFFF;endArrow=none;entryX=0.476;entryY=0;entryDx=0;entryDy=0;entryPerimeter=0;" edge="1" parent="1" source="122" target="126">
                    <mxGeometry relative="1" as="geometry">
                        <mxPoint x="455.26608076777916" y="5189.866959616111" as="sourcePoint"/>
                        <mxPoint x="453" y="5220" as="targetPoint"/>
                    </mxGeometry>
                </mxCell>
                <mxCell id="133" value="" style="edgeStyle=none;html=1;fontColor=#FFFFFF;" edge="1" parent="1" source="128" target="132">
                    <mxGeometry relative="1" as="geometry"/>
                </mxCell>
                <mxCell id="128" value="newdist=dc+weight[current][i]" style="whiteSpace=wrap;html=1;" vertex="1" parent="1">
                    <mxGeometry x="350" y="5477.5" width="210" height="42.5" as="geometry"/>
                </mxCell>
                <mxCell id="130" value="true" style="text;html=1;align=center;verticalAlign=middle;resizable=0;points=[];autosize=1;strokeColor=none;fillColor=none;fontColor=#FFFFFF;" vertex="1" parent="1">
                    <mxGeometry x="435.94" y="5420" width="40" height="20" as="geometry"/>
                </mxCell>
                <mxCell id="131" value="" style="edgeStyle=none;html=1;fontColor=#FFFFFF;endArrow=none;" edge="1" parent="1" source="124" target="130">
                    <mxGeometry relative="1" as="geometry">
                        <mxPoint x="455.94000000000005" y="5375" as="sourcePoint"/>
                        <mxPoint x="455.94000000000005" y="5477.5" as="targetPoint"/>
                    </mxGeometry>
                </mxCell>
                <mxCell id="135" value="" style="edgeStyle=none;html=1;fontSize=12;fontColor=#FFFFFF;" edge="1" parent="1" source="132" target="134">
                    <mxGeometry relative="1" as="geometry"/>
                </mxCell>
                <mxCell id="141" value="true" style="edgeLabel;html=1;align=center;verticalAlign=middle;resizable=0;points=[];fontSize=12;fontColor=#FFFFFF;" vertex="1" connectable="0" parent="135">
                    <mxGeometry x="-0.3333" relative="1" as="geometry">
                        <mxPoint as="offset"/>
                    </mxGeometry>
                </mxCell>
                <mxCell id="138" value="" style="edgeStyle=none;html=1;fontSize=12;fontColor=#FFFFFF;entryX=1;entryY=0.5;entryDx=0;entryDy=0;exitX=1;exitY=0.5;exitDx=0;exitDy=0;" edge="1" parent="1" source="132" target="139">
                    <mxGeometry relative="1" as="geometry">
                        <mxPoint x="610" y="6020" as="targetPoint"/>
                        <Array as="points">
                            <mxPoint x="610" y="5610"/>
                            <mxPoint x="610" y="5850"/>
                            <mxPoint x="610" y="6000"/>
                        </Array>
                    </mxGeometry>
                </mxCell>
                <mxCell id="140" value="false" style="edgeLabel;html=1;align=center;verticalAlign=middle;resizable=0;points=[];fontSize=12;fontColor=#FFFFFF;" vertex="1" connectable="0" parent="138">
                    <mxGeometry x="-0.2575" relative="1" as="geometry">
                        <mxPoint y="49" as="offset"/>
                    </mxGeometry>
                </mxCell>
                <mxCell id="132" value="if(newdist&amp;lt;dist[i]" style="rhombus;whiteSpace=wrap;html=1;" vertex="1" parent="1">
                    <mxGeometry x="375" y="5570" width="170" height="80" as="geometry"/>
                </mxCell>
                <mxCell id="137" value="" style="edgeStyle=none;html=1;fontSize=12;fontColor=#FFFFFF;entryX=0.5;entryY=0;entryDx=0;entryDy=0;" edge="1" parent="1" source="134" target="139">
                    <mxGeometry relative="1" as="geometry">
                        <mxPoint x="455.94000000000005" y="5940" as="targetPoint"/>
                    </mxGeometry>
                </mxCell>
                <mxCell id="134" value="dist[i]=newdist&lt;br&gt;precede[i]=current" style="whiteSpace=wrap;html=1;" vertex="1" parent="1">
                    <mxGeometry x="395.94" y="5800" width="120" height="60" as="geometry"/>
                </mxCell>
                <mxCell id="146" value="" style="edgeStyle=none;html=1;fontSize=12;fontColor=#FFFFFF;startArrow=none;" edge="1" parent="1" source="150" target="145">
                    <mxGeometry relative="1" as="geometry">
                        <Array as="points">
                            <mxPoint x="460" y="6100"/>
                        </Array>
                    </mxGeometry>
                </mxCell>
                <mxCell id="149" value="" style="edgeStyle=none;html=1;fontSize=12;fontColor=#FFFFFF;entryX=0;entryY=0.5;entryDx=0;entryDy=0;" edge="1" parent="1" source="139" target="159">
                    <mxGeometry relative="1" as="geometry">
                        <mxPoint x="360" y="6320" as="targetPoint"/>
                        <Array as="points">
                            <mxPoint x="300" y="6000"/>
                            <mxPoint x="300" y="6300"/>
                        </Array>
                    </mxGeometry>
                </mxCell>
                <mxCell id="152" value="false" style="edgeLabel;html=1;align=center;verticalAlign=middle;resizable=0;points=[];fontSize=12;fontColor=#FFFFFF;" vertex="1" connectable="0" parent="149">
                    <mxGeometry x="-0.164" relative="1" as="geometry">
                        <mxPoint as="offset"/>
                    </mxGeometry>
                </mxCell>
                <mxCell id="139" value="if(dist[i]&amp;lt;smalldist)" style="rhombus;whiteSpace=wrap;html=1;labelBackgroundColor=none;fontSize=12;fontColor=#FFFFFF;" vertex="1" parent="1">
                    <mxGeometry x="395.94" y="5950" width="120" height="100" as="geometry"/>
                </mxCell>
                <mxCell id="148" value="" style="edgeStyle=none;html=1;fontSize=12;fontColor=#FFFFFF;" edge="1" parent="1" source="145">
                    <mxGeometry relative="1" as="geometry">
                        <mxPoint x="460" y="6260" as="targetPoint"/>
                    </mxGeometry>
                </mxCell>
                <mxCell id="145" value="smalldist=dist[i]&lt;br&gt;k=1" style="whiteSpace=wrap;html=1;fontColor=#FFFFFF;labelBackgroundColor=none;" vertex="1" parent="1">
                    <mxGeometry x="400" y="6140" width="120" height="60" as="geometry"/>
                </mxCell>
                <mxCell id="156" value="" style="edgeStyle=none;html=1;fontSize=12;fontColor=#FFFFFF;entryX=1;entryY=0.5;entryDx=0;entryDy=0;" edge="1" parent="1" source="159" target="120">
                    <mxGeometry relative="1" as="geometry">
                        <mxPoint x="760" y="4967" as="targetPoint"/>
                        <mxPoint x="760" y="6440" as="sourcePoint"/>
                        <Array as="points">
                            <mxPoint x="760" y="6300"/>
                            <mxPoint x="760" y="4985"/>
                        </Array>
                    </mxGeometry>
                </mxCell>
                <mxCell id="161" value="false" style="edgeLabel;html=1;align=center;verticalAlign=middle;resizable=0;points=[];fontSize=12;fontColor=#FFFFFF;" vertex="1" connectable="0" parent="156">
                    <mxGeometry x="-0.8956" y="-1" relative="1" as="geometry">
                        <mxPoint as="offset"/>
                    </mxGeometry>
                </mxCell>
                <mxCell id="163" style="edgeStyle=none;html=1;fontSize=12;fontColor=#FFFFFF;" edge="1" parent="1" source="147">
                    <mxGeometry relative="1" as="geometry">
                        <mxPoint x="460" y="6530" as="targetPoint"/>
                    </mxGeometry>
                </mxCell>
                <mxCell id="147" value="&lt;div style=&quot;font-family: &amp;#34;droid sans mono&amp;#34; , monospace , monospace ; font-weight: normal ; font-size: 14px ; line-height: 19px&quot;&gt;&lt;div&gt; current=k;&lt;/div&gt;&lt;div&gt;        perm[current]=MEMBER;&lt;/div&gt;&lt;div&gt;        membnodes++;&lt;/div&gt;&lt;/div&gt;" style="whiteSpace=wrap;html=1;fontColor=#FFFFFF;labelBackgroundColor=none;" vertex="1" parent="1">
                    <mxGeometry x="365" y="6400" width="190" height="70" as="geometry"/>
                </mxCell>
                <mxCell id="150" value="true" style="text;html=1;align=center;verticalAlign=middle;resizable=0;points=[];autosize=1;strokeColor=none;fillColor=none;fontSize=12;fontColor=#FFFFFF;" vertex="1" parent="1">
                    <mxGeometry x="440" y="6080" width="40" height="20" as="geometry"/>
                </mxCell>
                <mxCell id="151" value="" style="edgeStyle=none;html=1;fontSize=12;fontColor=#FFFFFF;endArrow=none;" edge="1" parent="1" source="139" target="150">
                    <mxGeometry relative="1" as="geometry">
                        <mxPoint x="457.9035660164436" y="6048.363694986297" as="sourcePoint"/>
                        <mxPoint x="460" y="6140" as="targetPoint"/>
                        <Array as="points"/>
                    </mxGeometry>
                </mxCell>
                <mxCell id="160" value="" style="edgeStyle=none;html=1;fontSize=12;fontColor=#FFFFFF;" edge="1" parent="1" source="159" target="147">
                    <mxGeometry relative="1" as="geometry"/>
                </mxCell>
                <mxCell id="162" value="true" style="edgeLabel;html=1;align=center;verticalAlign=middle;resizable=0;points=[];fontSize=12;fontColor=#FFFFFF;" vertex="1" connectable="0" parent="160">
                    <mxGeometry x="-0.4" y="1" relative="1" as="geometry">
                        <mxPoint as="offset"/>
                    </mxGeometry>
                </mxCell>
                <mxCell id="159" value="if(i&amp;lt;n)" style="rhombus;whiteSpace=wrap;html=1;labelBackgroundColor=none;fontSize=12;fontColor=#FFFFFF;" vertex="1" parent="1">
                    <mxGeometry x="420" y="6260" width="80" height="80" as="geometry"/>
                </mxCell>
                <mxCell id="166" value="" style="edgeStyle=none;html=1;fontSize=12;fontColor=#FFFFFF;" edge="1" parent="1" source="164" target="165">
                    <mxGeometry relative="1" as="geometry"/>
                </mxCell>
                <mxCell id="164" value="&lt;div style=&quot;font-family: &amp;#34;droid sans mono&amp;#34; , monospace , monospace ; font-size: 14px ; line-height: 19px&quot;&gt;&lt;div&gt;graphics.update(current,precede[current]);&lt;/div&gt;&lt;div&gt;        graphics.display();&lt;/div&gt;&lt;/div&gt;" style="whiteSpace=wrap;html=1;labelBackgroundColor=none;fontSize=12;fontColor=#FFFFFF;" vertex="1" parent="1">
                    <mxGeometry x="270" y="6530" width="380" height="80" as="geometry"/>
                </mxCell>
                <mxCell id="168" value="" style="edgeStyle=none;html=1;fontSize=12;fontColor=#FFFFFF;" edge="1" parent="1" source="165" target="167">
                    <mxGeometry relative="1" as="geometry"/>
                </mxCell>
                <mxCell id="169" value="true" style="edgeLabel;html=1;align=center;verticalAlign=middle;resizable=0;points=[];fontSize=12;fontColor=#FFFFFF;" vertex="1" connectable="0" parent="168">
                    <mxGeometry x="-0.2667" y="1" relative="1" as="geometry">
                        <mxPoint as="offset"/>
                    </mxGeometry>
                </mxCell>
                <mxCell id="170" style="edgeStyle=none;html=1;exitX=0;exitY=0.5;exitDx=0;exitDy=0;fontSize=12;fontColor=#FFFFFF;entryX=0;entryY=0.5;entryDx=0;entryDy=0;" edge="1" parent="1" source="165" target="114">
                    <mxGeometry relative="1" as="geometry">
                        <mxPoint x="450" y="4750" as="targetPoint"/>
                        <Array as="points">
                            <mxPoint x="190" y="6730"/>
                            <mxPoint x="180" y="4685"/>
                        </Array>
                    </mxGeometry>
                </mxCell>
                <mxCell id="172" value="false" style="edgeLabel;html=1;align=center;verticalAlign=middle;resizable=0;points=[];fontSize=12;fontColor=#FFFFFF;" vertex="1" connectable="0" parent="170">
                    <mxGeometry x="-0.9056" y="-1" relative="1" as="geometry">
                        <mxPoint as="offset"/>
                    </mxGeometry>
                </mxCell>
                <mxCell id="165" value="if(membnodes==n)" style="rhombus;whiteSpace=wrap;html=1;fontColor=#FFFFFF;labelBackgroundColor=none;" vertex="1" parent="1">
                    <mxGeometry x="390" y="6690" width="140" height="80" as="geometry"/>
                </mxCell>
                <mxCell id="174" value="" style="edgeStyle=none;html=1;fontSize=12;fontColor=#FFFFFF;" edge="1" parent="1" source="167" target="173">
                    <mxGeometry relative="1" as="geometry"/>
                </mxCell>
                <mxCell id="167" value="break" style="whiteSpace=wrap;html=1;fontColor=#FFFFFF;labelBackgroundColor=none;" vertex="1" parent="1">
                    <mxGeometry x="400" y="6860" width="120" height="60" as="geometry"/>
                </mxCell>
                <mxCell id="176" value="" style="edgeStyle=none;html=1;fontSize=12;fontColor=#FFFFFF;" edge="1" parent="1" source="173">
                    <mxGeometry relative="1" as="geometry">
                        <mxPoint x="630" y="7101.739130434783" as="targetPoint"/>
                        <Array as="points">
                            <mxPoint x="630" y="7050"/>
                        </Array>
                    </mxGeometry>
                </mxCell>
                <mxCell id="178" value="" style="edgeStyle=none;html=1;fontSize=12;fontColor=#FFFFFF;" edge="1" parent="1" source="173" target="177">
                    <mxGeometry relative="1" as="geometry">
                        <Array as="points">
                            <mxPoint x="460" y="7140"/>
                        </Array>
                    </mxGeometry>
                </mxCell>
                <mxCell id="180" value="true" style="edgeLabel;html=1;align=center;verticalAlign=middle;resizable=0;points=[];fontSize=12;fontColor=#FFFFFF;" vertex="1" connectable="0" parent="178">
                    <mxGeometry x="0.1" relative="1" as="geometry">
                        <mxPoint as="offset"/>
                    </mxGeometry>
                </mxCell>
                <mxCell id="173" value="while(graphics.display( ))" style="rhombus;whiteSpace=wrap;html=1;fontColor=#FFFFFF;labelBackgroundColor=none;" vertex="1" parent="1">
                    <mxGeometry x="385" y="7000" width="150" height="100" as="geometry"/>
                </mxCell>
                <mxCell id="179" style="edgeStyle=none;html=1;entryX=0;entryY=0.5;entryDx=0;entryDy=0;fontSize=12;fontColor=#FFFFFF;" edge="1" parent="1" source="177" target="173">
                    <mxGeometry relative="1" as="geometry">
                        <Array as="points">
                            <mxPoint x="360" y="7230"/>
                            <mxPoint x="360" y="7050"/>
                        </Array>
                    </mxGeometry>
                </mxCell>
                <mxCell id="177" value="//" style="whiteSpace=wrap;html=1;fontColor=#FFFFFF;labelBackgroundColor=none;" vertex="1" parent="1">
                    <mxGeometry x="400" y="7200" width="120" height="60" as="geometry"/>
                </mxCell>
                <mxCell id="181" value="End" style="ellipse;whiteSpace=wrap;html=1;labelBackgroundColor=none;fontSize=12;fontColor=#FFFFFF;" vertex="1" parent="1">
                    <mxGeometry x="570" y="7100" width="120" height="60" as="geometry"/>
                </mxCell>
            </root>
        </mxGraphModel>
    </diagram>
</mxfile>